<svg width="123" height="103" viewBox="0 0 123 103" fill="none" xmlns="http://www.w3.org/2000/svg">
<path d="M123 103C121.41 95.5003 117.481 88.8388 112.008 83.8541C104.559 69.8742 91.7731 59.1571 76.3754 54.3763C70.3571 43.002 58.3432 35.2077 44.5126 35.2077C44.2855 35.2077 44.0583 35.2077 43.854 35.2077C33.18 22.7459 17.5552 14.6571 0 14V103H123Z" fill="#FAF2DC"/>
<path d="M14.6308 38.1135C14.8161 38.2538 15.0014 38.3707 15.1867 38.4876C15.3489 38.5812 15.5342 38.6747 15.7195 38.7448C15.9048 38.8384 16.1132 38.9085 16.2985 38.9553C19.1708 40.0309 21.8808 41.5507 24.2434 43.5616C24.753 43.9825 25.4711 43.2577 25.3321 42.4627C24.6604 39.119 23.8265 35.9857 22.2746 32.9226C22.2051 32.7355 22.1124 32.5718 21.9966 32.3848C21.904 32.2211 21.7882 32.0808 21.6492 31.9405C21.5102 31.7768 21.3481 31.6365 21.1628 31.4962C19.0318 29.9764 15.9279 30.7012 14.1212 32.4783C12.3377 34.2554 12.6851 36.6404 14.6308 38.1135Z" fill="#B79E0E"/>
<path d="M24.1508 80.8567C23.9655 80.997 23.7802 81.114 23.5949 81.2309C23.4328 81.3244 23.2474 81.4179 23.0621 81.4881C22.8768 81.5816 22.6684 81.6518 22.4831 81.6985C19.6109 82.7741 16.9008 84.3174 14.5382 86.3049C14.0286 86.7258 13.3105 86.0009 13.4495 85.2059C14.1213 81.8622 14.9551 78.7289 16.507 75.6658C16.5765 75.4788 16.6692 75.3151 16.785 75.128C16.8776 74.9644 16.9935 74.8241 17.1324 74.6838C17.2714 74.5201 17.4336 74.3798 17.6189 74.2395C19.7498 72.7196 22.8537 73.4445 24.6604 75.2216C26.4439 77.022 26.0965 79.3836 24.1508 80.8567Z" fill="#B79E0E"/>
<path d="M39.4615 19.2438C39.2762 19.3841 39.0909 19.501 38.9056 19.6179C38.7434 19.7115 38.5581 19.805 38.3728 19.8751C38.1875 19.9687 37.9791 20.0388 37.7938 20.0856C34.8984 21.1612 32.1883 22.681 29.8489 24.6919C29.3393 25.1128 28.6212 24.388 28.7602 23.593C29.4319 20.2493 30.2658 17.116 31.8177 14.0529C31.8872 13.8658 31.9799 13.7022 32.0957 13.5151C32.1883 13.3514 32.3042 13.2111 32.4431 13.0708C32.5821 12.9071 32.7442 12.7669 32.9296 12.6266C35.0605 11.1067 38.1644 11.8316 39.9711 13.6086C41.7546 15.3857 41.4072 17.7707 39.4615 19.2438Z" fill="#B79E0E"/>
<path d="M28.6676 32.8992C28.5054 28.5734 27.6947 24.2944 26.5134 20.1557C25.3321 16.017 23.7802 11.9719 22.0198 8.06697C23.7107 12.0186 25.17 16.0638 26.2355 20.2259C27.301 24.388 28.019 28.6436 28.0885 32.9226C28.158 35.0504 28.019 37.2016 27.7411 39.306C27.4631 41.4104 26.9999 43.5149 26.3513 45.5258C25.7027 47.56 24.8689 49.5008 23.8497 51.3714C23.3401 52.3067 22.8074 53.2186 22.2283 54.1071C21.6492 54.9957 21.047 55.8608 20.3984 56.726C19.1245 58.4329 17.781 60.0931 16.4376 61.7766C15.0941 63.4602 13.8201 65.2372 12.6852 67.1312C11.5733 69.0252 10.67 71.0595 10.0446 73.2107C9.7203 74.2863 9.51183 75.3619 9.32653 76.4608L9.14122 78.0976C9.0949 78.3782 9.0949 78.6588 9.07174 78.916L9.02541 79.7578C8.93276 81.9791 9.0949 84.2005 9.48867 86.375C9.88244 88.5496 10.4847 90.6774 11.2491 92.7585C12.5693 96.3827 14.376 99.7732 16.4376 103H19.2171C16.785 99.5862 14.654 95.9385 13.1253 92.0336C12.3609 90.0928 11.7355 88.082 11.3185 86.0243C10.9248 83.9666 10.7163 81.8856 10.7626 79.8045L10.7858 79.0329C10.809 78.7757 10.7858 78.5185 10.8321 78.2613L10.9943 76.6947C11.1332 75.6658 11.3185 74.637 11.5965 73.6316C12.1292 71.6207 12.9399 69.6799 13.9591 67.8561C15.9975 64.185 18.8465 60.9582 21.3481 57.4041C21.9735 56.5156 22.5757 55.627 23.1548 54.6917C23.7339 53.7564 24.2666 52.8211 24.753 51.839C25.7491 49.8983 26.5598 47.864 27.1852 45.783C27.8106 43.7019 28.2275 41.5507 28.4823 39.3995C28.7139 37.2484 28.7834 35.0738 28.6676 32.8992Z" fill="#B79E0E"/>
<path d="M22.2514 16.6016C26.7928 16.6016 30.4743 12.8852 30.4743 8.30079C30.4743 3.71639 26.7928 0 22.2514 0C17.7101 0 14.0286 3.71639 14.0286 8.30079C14.0286 12.8852 17.7101 16.6016 22.2514 16.6016Z" fill="#FC9232"/>
<path d="M40.527 89.6018C40.7123 89.7421 40.8976 89.859 41.0829 89.9759C41.245 90.0695 41.4304 90.163 41.6157 90.2331C41.801 90.3267 42.0094 90.3968 42.1947 90.4436C45.0669 91.5192 47.777 93.039 50.1396 95.0499C50.6492 95.4708 51.3673 94.746 51.2283 93.9509C50.5566 90.6073 49.7227 87.474 48.1708 84.4109C48.1013 84.2238 48.0086 84.0602 47.8928 83.8731C47.8002 83.7094 47.6844 83.5691 47.5454 83.4288C47.4064 83.2651 47.2443 83.1249 47.059 82.9846C44.928 81.4647 41.8241 82.1896 40.0174 83.9666C38.2339 85.7671 38.5813 88.1521 40.527 89.6018Z" fill="#B79E0E"/>
<path d="M65.3577 70.7321C65.1724 70.8724 64.9871 70.9893 64.8018 71.1062C64.6396 71.1998 64.4543 71.2933 64.269 71.3634C64.0837 71.457 63.8752 71.5271 63.6899 71.5739C60.8177 72.6495 58.1077 74.1693 55.745 76.1802C55.2354 76.6011 54.5174 75.8763 54.6564 75.0813C55.3281 71.7376 56.162 68.6043 57.7139 65.5412C57.7834 65.3541 57.876 65.1905 57.9918 65.0034C58.0845 64.8397 58.2003 64.6994 58.3393 64.5591C58.4783 64.3955 58.6404 64.2552 58.8257 64.1149C60.9567 62.595 64.0605 63.3199 65.8672 65.0969C67.6508 66.8974 67.3033 69.2824 65.3577 70.7321Z" fill="#B79E0E"/>
<path d="M54.0078 84.4109C54.0773 86.5387 53.9383 88.6899 53.6604 90.7943C53.3824 92.8987 52.9191 95.0032 52.2706 97.0141C51.622 99.0484 50.7882 100.989 49.769 102.86C49.7458 102.906 49.7227 102.953 49.6995 102.977H50.8345C51.7378 101.153 52.5022 99.2354 53.0813 97.2713C53.7067 95.1902 54.1236 93.039 54.3784 90.8879C54.61 88.7367 54.7027 86.5621 54.5869 84.3875C54.4247 80.0617 53.614 75.7827 52.4327 71.644C51.2514 67.5053 49.6995 63.4601 47.9391 59.5553C49.63 63.5069 51.0893 67.5521 52.1548 71.7142C53.2203 75.8763 53.9383 80.1319 54.0078 84.4109Z" fill="#B79E0E"/>
<path d="M48.1476 68.0899C52.6889 68.0899 56.3704 64.3735 56.3704 59.7891C56.3704 55.2047 52.6889 51.4883 48.1476 51.4883C43.6062 51.4883 39.9247 55.2047 39.9247 59.7891C39.9247 64.3735 43.6062 68.0899 48.1476 68.0899Z" fill="#FC9232"/>
</svg>
