<svg width="120" height="109" viewBox="0 0 120 109" fill="none" xmlns="http://www.w3.org/2000/svg">
<path fill-rule="evenodd" clip-rule="evenodd" d="M120 109V32C102.445 32.6423 86.82 40.5494 76.1461 52.7312H75.4875C61.6568 52.7312 49.6429 60.3503 43.6246 71.4689C28.2269 76.1423 15.4409 86.6186 7.99185 100.284C5.17456 102.793 2.76642 105.735 0.875885 109H120Z" fill="#FAF2DC"/>
<path d="M87.3088 34.1923C78.2518 33.6128 71.1669 26.103 71.1669 17.1203C71.1669 7.67878 78.9092 0 88.4287 0C97.9483 0 105.691 7.67878 105.691 17.1203C105.691 26.0306 98.6788 33.5162 89.7435 34.1923L89.6948 33.4679C98.2649 32.8401 104.96 25.6442 104.96 17.1203C104.96 8.08928 97.5345 0.724413 88.4287 0.724413C79.323 0.724413 71.8973 8.08928 71.8973 17.1203C71.8973 25.7408 78.69 32.9366 87.3575 33.4679L87.3088 34.1923Z" fill="#0497AF"/>
<path d="M88.6722 18.6657L89.427 109H87.6009L88.3557 18.6657H88.6722Z" fill="#B79E0E"/>
<path d="M71.6051 38.9976C72.579 38.7319 73.6259 38.5871 74.6485 38.5871C75.671 38.5871 76.6936 38.7319 77.6918 39.0459C78.6657 39.3356 79.6152 39.7703 80.4917 40.3015L81.1247 40.7362C81.3438 40.881 81.5629 41.0259 81.7577 41.195L82.342 41.6779L82.4881 41.7986L82.6342 41.9435L82.902 42.2091C83.6568 42.9094 84.2898 43.7062 84.9228 44.5273L85.361 45.1551C85.4341 45.2517 85.5071 45.3724 85.5802 45.469L85.7749 45.7829C85.8967 46.0002 86.0428 46.2175 86.1645 46.4349L86.5297 47.111C87.4792 48.8979 88.2583 50.8055 88.7939 52.7614L88.234 52.9063C87.747 50.9745 87.0166 49.0911 86.1158 47.3283L85.7749 46.6763C85.6532 46.459 85.5315 46.2417 85.3854 46.0244L85.1906 45.7105C85.1176 45.6139 85.0445 45.4931 84.9958 45.3965L84.5819 44.7687C83.9976 43.9719 83.3646 43.175 82.6586 42.4747L82.3907 42.2091L82.269 42.0884L82.1229 41.9677L81.5386 41.4847C81.3438 41.3157 81.1491 41.1708 80.9299 41.0259L80.3213 40.5913C79.4691 40.06 78.5683 39.6254 77.6188 39.3356C76.6692 39.0459 75.671 38.8768 74.6485 38.8527C73.6502 38.8285 72.6277 38.9493 71.6538 39.2149L71.6051 38.9976Z" fill="#B79E0E"/>
<path d="M71.6051 76.8844C72.579 76.6187 73.6259 76.4739 74.6485 76.4739C75.671 76.4739 76.6936 76.6187 77.6918 76.9327C78.6657 77.2224 79.6152 77.6571 80.4917 78.1883L81.1247 78.623C81.3438 78.7678 81.5629 78.9127 81.7577 79.0817L82.342 79.5647L82.4881 79.6854L82.6342 79.8303L82.902 80.0959C83.6568 80.7962 84.2898 81.593 84.9228 82.414L85.361 83.0419C85.4341 83.1385 85.5071 83.2592 85.5802 83.3558L85.7749 83.6697C85.8967 83.887 86.0428 84.1043 86.1645 84.3217L86.5297 84.9978C87.4792 86.7847 88.2583 88.6923 88.7939 90.6482L88.234 90.7931C87.747 88.8613 87.0166 86.9778 86.1158 85.2151L85.7749 84.5631C85.6532 84.3458 85.5315 84.1285 85.3854 83.9112L85.1906 83.5973C85.1176 83.5007 85.0445 83.3799 84.9958 83.2833L84.5819 82.6555C83.9976 81.8587 83.3646 81.0618 82.6586 80.3615L82.3907 80.0959L82.269 79.9752L82.1229 79.8545L81.5386 79.3715C81.3438 79.2025 81.1491 79.0576 80.9299 78.9127L80.3213 78.4781C79.4691 77.9468 78.5683 77.5122 77.6188 77.2224C76.6692 76.9327 75.671 76.7636 74.6485 76.7395C73.6502 76.7153 72.6277 76.8361 71.6538 77.1017L71.6051 76.8844Z" fill="#B79E0E"/>
<path d="M105.374 58.1221C104.4 57.8565 103.402 57.7357 102.379 57.7599C101.381 57.784 100.383 57.953 99.4091 58.2428C98.4596 58.5326 97.5345 58.9672 96.7067 59.4985L96.098 59.9331C95.9032 60.078 95.6841 60.2229 95.4893 60.3919L94.905 60.8748L94.7589 60.9956L94.6372 61.1163L94.3694 61.3819C93.639 62.0822 93.0303 62.8549 92.446 63.6759L92.0321 64.3037C91.959 64.4003 91.886 64.5211 91.8373 64.6176L91.6425 64.9316C91.5208 65.1489 91.3747 65.3662 91.253 65.5835L90.9121 66.2355C89.9869 68.0224 89.2809 69.8817 88.794 71.8135L88.234 71.6686C88.7696 69.7127 89.5244 67.8051 90.4982 66.0182L90.8634 65.3421C90.9852 65.1247 91.1312 64.9074 91.253 64.6901L91.4478 64.3762C91.5208 64.2796 91.5938 64.1588 91.6669 64.0623L92.1051 63.4344C92.7138 62.6134 93.3711 61.8166 94.1259 61.1163L94.3937 60.8507L94.5398 60.7058L94.6859 60.5851L95.2702 60.1021C95.465 59.9331 95.6841 59.7882 95.9032 59.6433L96.5362 59.2087C97.4127 58.6775 98.3622 58.2428 99.3361 57.953C100.31 57.6633 101.357 57.5184 102.379 57.4942C103.402 57.4942 104.425 57.6391 105.423 57.9047L105.374 58.1221Z" fill="#B79E0E"/>
<path d="M88.5992 23.9298C92.2969 23.9298 95.2945 20.9567 95.2945 17.2893C95.2945 13.6219 92.2969 10.6489 88.5992 10.6489C84.9014 10.6489 81.9038 13.6219 81.9038 17.2893C81.9038 20.9567 84.9014 23.9298 88.5992 23.9298Z" fill="#FC9232"/>
<path d="M71.7025 43.2474C74.2842 43.2474 76.3771 41.1717 76.3771 38.6112C76.3771 36.0507 74.2842 33.975 71.7025 33.975C69.1208 33.975 67.0279 36.0507 67.0279 38.6112C67.0279 41.1717 69.1208 43.2474 71.7025 43.2474Z" fill="#FC9232"/>
<path d="M71.7025 81.1342C74.2842 81.1342 76.3771 79.0585 76.3771 76.498C76.3771 73.9375 74.2842 71.8618 71.7025 71.8618C69.1208 71.8618 67.0279 73.9375 67.0279 76.498C67.0279 79.0585 69.1208 81.1342 71.7025 81.1342Z" fill="#FC9232"/>
<path d="M105.325 62.1788C107.907 62.1788 110 60.1031 110 57.5425C110 54.982 107.907 52.9063 105.325 52.9063C102.744 52.9063 100.651 54.982 100.651 57.5425C100.651 60.1031 102.744 62.1788 105.325 62.1788Z" fill="#FC9232"/>
<path d="M48.4513 69.7368C39.3943 69.1573 32.3094 61.6475 32.3094 52.6648C32.3094 43.2233 40.0517 35.5445 49.5713 35.5445C59.0909 35.5445 66.8331 43.2233 66.8331 52.6648C66.8331 61.5751 59.8213 69.0607 50.886 69.7368L50.8373 69.0124C59.4074 68.3846 66.1027 61.1887 66.1027 52.6648C66.1027 43.6338 58.677 36.2689 49.5713 36.2689C40.4656 36.2689 33.0398 43.6338 33.0398 52.6648C33.0398 61.2853 39.8325 68.4812 48.5 69.0124L48.4513 69.7368Z" fill="#0497AF"/>
<path d="M50.2043 109L49.6443 53.6548H49.3278L48.7435 109H50.2043Z" fill="#B79E0E"/>
<path d="M32.5772 73.9867C33.5511 73.7211 34.598 73.5762 35.6206 73.5762C36.6431 73.5762 37.6657 73.7211 38.6639 74.035C39.6378 74.3248 40.5873 74.7594 41.4638 75.2906L42.0968 75.7253C42.3159 75.8702 42.535 76.0151 42.7298 76.1841L43.3141 76.667L43.4602 76.7878L43.6063 76.9327L43.8741 77.1983C44.6289 77.8985 45.2619 78.6954 45.8949 79.5164L46.3331 80.1442C46.4062 80.2408 46.4792 80.3615 46.5523 80.4581L46.747 80.772C46.8688 80.9894 47.0149 81.2067 47.1366 81.424L47.5018 82.1001C48.4513 83.887 49.2304 85.7946 49.766 87.7506L49.2061 87.8954C48.7191 85.9637 47.9887 84.0802 47.0879 82.3175L46.747 81.6655C46.6253 81.4482 46.5036 81.2308 46.3575 81.0135L46.1627 80.6996C46.0897 80.603 46.0166 80.4823 45.9679 80.3857L45.554 79.7579C44.9697 78.961 44.3367 78.1642 43.6306 77.4639L43.3628 77.1983L43.2411 77.0775L43.095 76.9568L42.5107 76.4739C42.3159 76.3048 42.1211 76.1599 41.902 76.0151L41.2934 75.5804C40.4412 75.0492 39.5404 74.6145 38.5909 74.3248C37.6413 74.035 36.6431 73.866 35.6206 73.8418C34.6223 73.8177 33.5998 73.9384 32.6259 74.204L32.5772 73.9867Z" fill="#B79E0E"/>
<path d="M66.3462 93.1112C65.3723 92.8456 64.3741 92.7249 63.3515 92.749C62.3533 92.7732 61.3551 92.9422 60.3812 93.232C59.4317 93.5217 58.5065 93.9564 57.6787 94.4876L57.0701 94.9222C56.8753 95.0671 56.6562 95.212 56.4614 95.381L55.8771 95.864L55.731 95.9847L55.6093 96.1055L55.3414 96.3711C54.611 97.0713 54.0024 97.844 53.4181 98.665L53.0042 99.2929C52.9311 99.3895 52.8581 99.5102 52.8094 99.6068L52.6146 99.9207C52.4929 100.138 52.3468 100.355 52.2251 100.573L51.8842 101.225C50.959 103.012 50.253 104.871 49.766 106.803L49.2061 106.658C49.7417 104.702 50.4964 102.794 51.4703 101.007L51.8355 100.331C51.9572 100.114 52.1033 99.8965 52.2251 99.6792L52.4198 99.3653C52.4929 99.2687 52.5659 99.148 52.639 99.0514L53.0772 98.4236C53.6859 97.6026 54.3432 96.8057 55.098 96.1055L55.3658 95.8398L55.5119 95.695L55.658 95.5742L56.2423 95.0913C56.4371 94.9222 56.6562 94.7774 56.8753 94.6325L57.5083 94.1978C58.3848 93.6666 59.3343 93.2319 60.3082 92.9422C61.2821 92.6524 62.329 92.5075 63.3515 92.4834C64.3741 92.4834 65.3967 92.6283 66.3949 92.8939L66.3462 93.1112Z" fill="#B79E0E"/>
<path d="M49.5713 58.9431C53.269 58.9431 56.2666 55.97 56.2666 52.3026C56.2666 48.6352 53.269 45.6622 49.5713 45.6622C45.8735 45.6622 42.8759 48.6352 42.8759 52.3026C42.8759 55.97 45.8735 58.9431 49.5713 58.9431Z" fill="#FC9232"/>
<path d="M32.6746 78.2366C35.2563 78.2366 37.3492 76.1609 37.3492 73.6003C37.3492 71.0398 35.2563 68.9641 32.6746 68.9641C30.0929 68.9641 28 71.0398 28 73.6003C28 76.1609 30.0929 78.2366 32.6746 78.2366Z" fill="#FC9232"/>
<path d="M66.2975 97.1679C68.8792 97.1679 70.9721 95.0922 70.9721 92.5317C70.9721 89.9712 68.8792 87.8954 66.2975 87.8954C63.7158 87.8954 61.6229 89.9712 61.6229 92.5317C61.6229 95.0922 63.7158 97.1679 66.2975 97.1679Z" fill="#FC9232"/>
</svg>
