<svg width="147" height="207" viewBox="0 0 147 207" fill="none" xmlns="http://www.w3.org/2000/svg">
<g id="canvas">
<path id="Vector" d="M138.7 207H124.433L116.043 183.8H30.6027L22.2126 207H7.94493L26.0228 156.992H0V143.492H30.9045L45.7758 102.364L58.376 106.983L45.1797 143.492H66.7962V0H80.2038V143.492H101.473L88.6316 107.971L101.232 103.352L115.741 143.492H147V156.992H120.623L138.7 207ZM106.355 156.992H40.2981L35.4843 170.301H111.161L106.355 156.992Z" fill="#0497AF"/>
<path id="Vector_2" d="M136.617 9.99237V143.495H10.3886L10.3886 9.99237H136.617Z" fill="white"/>
<path id="Vector_3" d="M136.618 9.98953H10.3895V143.492H9.25772V9.98953V8.85004H10.3895H136.618H137.75V9.98953V143.492H136.618V9.98953Z" fill="#FC9232"/>
<g id="Frame" clip-path="url(#clip0)">
<path id="Vector_4" d="M32.3467 60.8443C32.7558 60.6588 32.9293 60.0037 33.4748 60.597C33.6607 60.8443 33.8218 61.1038 33.9582 61.3634C34.0946 61.623 34.2185 61.8826 34.3177 62.1546C34.516 62.6985 34.6648 63.2424 34.8135 63.7986C35.111 64.8988 35.421 65.999 36.2143 66.9631C36.4498 66.9013 36.6978 66.8272 36.9333 66.753C37.6151 68.5454 38.2721 70.4243 39.0406 72.3033C39.5489 73.0697 40.0695 73.8237 40.5902 74.5778C41.1108 75.3195 41.6314 76.0488 42.1645 76.7905C42.7099 77.5198 43.2306 78.2491 43.7884 78.9784L44.6189 80.0539L45.4743 81.1293C45.6354 80.8944 45.809 80.7214 46.1065 80.9686C46.6147 81.5372 47.1354 82.2789 47.6684 83.1071C47.9411 83.5274 48.2138 83.9601 48.4989 84.4051C48.6477 84.6276 48.7841 84.8501 48.9328 85.085C49.0816 85.3075 49.2427 85.53 49.3915 85.7648C49.6146 85.9997 49.8501 86.2346 50.0733 86.4694C50.346 86.5683 50.5939 86.4694 50.7427 86.4076C51.0402 86.8032 51.3005 87.1864 51.5608 87.5696C51.8087 87.9404 52.0443 88.2989 52.2674 88.6451C56.197 92.44 60.4365 96.0001 64.9487 99.2759L65.3702 99.5849L65.8164 99.8939C66.1139 100.104 66.399 100.314 66.6966 100.524C67.2916 100.932 67.8866 101.34 68.4816 101.748C69.6964 102.539 70.9113 103.318 72.1633 104.047C73.4029 104.789 74.6673 105.494 75.9441 106.186C77.2209 106.866 78.5225 107.533 79.8365 108.176C82.2414 109.004 84.6215 109.734 86.7536 110.673C87.1379 110.871 87.5222 111.081 87.9188 111.291C88.3155 111.514 88.7122 111.749 89.1089 111.983C89.3072 112.107 89.5056 112.231 89.7163 112.354C89.9146 112.478 90.1254 112.614 90.3113 112.725C90.6956 112.972 91.0799 113.22 91.4518 113.479C92.9641 114.505 94.4021 115.618 95.6789 116.545C96.1995 115.346 98.2573 115.593 100.216 115.84C102.174 116.075 104.046 116.298 104.183 114.777C105.05 115.469 106.116 116.347 107.046 117.002C107.282 117.175 107.48 117.299 107.678 117.41C107.877 117.521 108.05 117.62 108.224 117.694C108.559 117.83 108.819 117.867 108.968 117.744C109.389 117.385 109.897 117.052 110.48 116.78C111.063 116.508 111.744 116.322 112.538 116.248C112.934 116.211 113.368 116.211 113.839 116.248C114.31 116.285 114.819 116.372 115.364 116.495C115.922 116.631 116.504 116.804 117.161 117.064C117.323 117.126 117.484 117.188 117.657 117.262C117.831 117.336 118.004 117.422 118.178 117.497C118.352 117.583 118.537 117.67 118.711 117.756C118.897 117.843 119.083 117.954 119.281 118.065C120.409 118.807 121.674 120.117 122.802 121.514C123.087 121.873 123.36 122.231 123.607 122.552C123.868 122.911 124.116 123.245 124.339 123.554C124.401 123.628 124.45 123.69 124.5 123.776C124.562 123.85 124.612 123.924 124.661 123.999C124.773 124.147 124.872 124.283 124.959 124.394C125.145 124.629 125.318 124.815 125.455 124.926C125.777 125.099 125.913 124.975 125.963 124.703C125.975 124.666 125.975 124.629 125.975 124.592C125.975 124.58 125.975 124.567 125.975 124.555C125.975 124.543 125.975 124.53 125.963 124.505C125.95 124.481 125.95 124.444 125.938 124.419C125.913 124.295 125.876 124.159 125.826 124.011C125.74 123.714 125.628 123.393 125.504 123.059C125.442 122.911 125.393 122.75 125.331 122.602C125.281 122.453 125.219 122.318 125.169 122.182C125.07 121.91 124.996 121.662 124.959 121.477C124.946 121.378 124.934 121.304 124.946 121.242C124.959 121.18 124.983 121.143 125.021 121.118C125.058 121.094 125.12 121.081 125.194 121.106C125.269 121.118 125.368 121.168 125.492 121.254C124.401 119.895 123.347 118.795 122.331 117.818C121.327 116.866 120.347 116.013 119.405 115.234C117.533 113.689 115.748 112.367 114.224 111.217L113.678 110.797L113.405 110.599L113.17 110.413L111.992 109.486C111.125 108.807 110.244 108.127 109.339 107.459C107.542 106.124 105.695 104.826 103.786 103.565C101.877 102.304 99.8936 101.093 97.8482 99.9434C97.4143 99.6961 96.9681 99.4489 96.5342 99.2017C96.1003 98.9668 95.6913 98.7196 95.2698 98.4724C94.4268 97.9903 93.5963 97.4958 92.7782 97.0014C89.4932 95.0235 86.3693 92.9221 83.4934 90.6105C82.9108 90.3262 81.9811 89.7576 80.8406 88.9046C80.258 88.4844 79.6382 88.0023 78.9688 87.446C78.6341 87.1617 78.2994 86.8774 77.9399 86.5683C77.568 86.2346 77.1837 85.9008 76.7995 85.5423C75.2375 84.1208 73.5517 82.4767 71.841 80.6596C70.1303 78.8425 68.3948 76.8399 66.709 74.7261C65.0231 72.6123 63.3744 70.3996 61.8249 68.1746C61.4406 67.6183 61.0563 67.062 60.6844 66.5058C60.3125 65.9495 59.9406 65.4056 59.5811 64.8493C59.2217 64.2931 58.8622 63.7615 58.5151 63.2176C58.168 62.6861 57.8333 62.1669 57.511 61.6477C54.9202 57.5314 53.0483 54.0084 52.0814 51.9193C51.9451 51.6721 51.8087 51.4372 51.6724 51.19C51.1269 50.0651 50.5567 48.8908 49.9741 47.6917C49.4039 46.5297 48.8336 45.3554 48.2634 44.2058C47.9907 43.6372 47.718 43.0809 47.4453 42.5246C47.1602 41.9437 46.8874 41.375 46.5899 40.7817C46.0073 39.6197 45.3999 38.4825 44.7677 37.4441C43.4661 35.6023 41.9661 33.6739 40.3546 31.7579C40.4042 32.9446 40.3918 34.0324 40.3051 34.9718C39.9084 33.884 39.4869 32.7839 39.0406 31.8691C38.8175 31.4117 38.5944 31.0038 38.3712 30.6701C38.1481 30.3363 37.925 30.0767 37.7142 29.916C36.8961 28.9024 36.2391 28.3338 35.768 28.1113C35.2846 27.8887 34.9871 28 34.7764 28.3214C34.3673 28.9518 34.2805 30.361 33.9086 31.5724C33.859 32.3389 33.3632 32.4377 32.9169 32.6355C32.4707 32.8209 32.0616 33.1053 32.1236 34.156C31.9872 33.8346 31.8632 33.5503 31.7393 33.2907C31.6153 33.0311 31.5162 32.7962 31.4046 32.5614C31.1815 32.0916 30.9459 31.6219 30.6112 31.0038C30.2641 31.1151 30.8592 31.9927 31.3302 32.8457C31.4418 33.0558 31.5533 33.266 31.6401 33.4637C31.7269 33.6615 31.7889 33.8346 31.8137 33.9829C31.8632 34.2672 31.7641 34.4156 31.3922 34.329C31.231 33.6615 30.8963 33.0435 30.4997 32.4625C30.103 31.8691 29.6815 31.3129 29.3344 30.7319C29.0369 31.1769 29.5328 32.2152 29.9418 33.2165C30.3509 34.2178 30.6856 35.182 30.2022 35.2809C29.9542 34.9966 29.8551 34.0076 29.6319 33.13C29.5204 32.685 29.384 32.2894 29.1981 32.0175C29.0121 31.7455 28.7766 31.6095 28.4915 31.7084C28.3799 31.7455 28.4667 32.0545 28.6278 32.413C28.7022 32.5984 28.8014 32.7962 28.8882 32.994C28.9749 33.1918 29.0741 33.3648 29.1361 33.5132C28.5906 32.6602 28.0328 31.9804 27.5122 31.4983C27.2519 31.2634 27.0039 31.078 26.7808 30.942C26.5577 30.806 26.3469 30.7195 26.1734 30.6824C25.8139 30.6206 25.566 30.7566 25.442 31.0903C25.3181 31.4365 25.3304 31.9927 25.4668 32.8209C25.1941 32.3512 24.9586 31.7455 24.6611 31.1892C24.3759 30.633 24.0288 30.1138 23.6322 29.8171C23.6322 29.8171 23.6322 29.8295 23.6198 29.8418C23.6942 29.9407 23.7809 30.0644 23.8677 30.2003C23.9545 30.3363 24.0412 30.497 24.128 30.6453C24.1776 30.7195 24.2148 30.7937 24.252 30.8802C24.2892 30.9544 24.3388 31.0285 24.3759 31.1027C24.4627 31.2387 24.5371 31.3747 24.5991 31.4736C24.252 30.9791 23.8925 30.5094 23.5206 30.1014C23.4586 30.2869 23.409 30.4723 23.3471 30.6577C23.3842 30.7566 23.4338 30.8555 23.471 30.9544C23.5082 31.0533 23.5578 31.1522 23.6074 31.2387C23.657 31.3376 23.7065 31.4365 23.7561 31.5354C23.8057 31.6343 23.8677 31.7208 23.9297 31.8197L23.8429 31.6961L23.7561 31.5848L23.5826 31.3623C23.471 31.214 23.3595 31.078 23.2479 30.9297C23.1859 31.1645 23.1363 31.3994 23.0867 31.6343C23.0867 31.8444 23.0372 32.0793 23 32.3141C23.0743 33.0558 23.0372 33.8469 23.0124 34.5515C23 34.8977 22.9876 35.2314 23.0124 35.5034C23.0248 35.7877 23.0743 36.0225 23.1611 36.208C23.7809 37.679 24.3635 39.3849 24.9586 41.2514C25.5536 43.118 26.1362 45.1453 26.8304 47.3209C27.1775 48.4087 27.537 49.5336 27.9584 50.7079C28.1692 51.3012 28.3923 51.8946 28.6278 52.5127C28.7394 52.8217 28.8758 53.1307 28.9997 53.4398L29.3468 54.2927C30.2641 56.5301 31.2682 58.7181 32.3467 60.8443Z" fill="#FCA04C"/>
</g>
</g>
<defs>
<clipPath id="clip0">
<rect width="103" height="97" fill="white" transform="translate(23 28)"/>
</clipPath>
</defs>
</svg>
