<?xml version="1.0" encoding="utf-8"?>
<!-- Generator: Adobe Illustrator 23.0.6, SVG Export Plug-In . SVG Version: 6.00 Build 0)  -->
<svg version="1.1" id="Calque_1" xmlns="http://www.w3.org/2000/svg" xmlns:xlink="http://www.w3.org/1999/xlink" x="0px" y="0px"
	 viewBox="0 0 1274.5 66" style="enable-background:new 0 0 1274.5 66;" xml:space="preserve">
<style type="text/css">
	.st0{fill:#FC9232;}
	.st1{fill:#1A1940;}
	.st2{fill:#FDF9EE;}
</style>
<title>pencil_2</title>
<g>
	<g id="Calque_1-2">
		<path class="st0" d="M1268.5,3.3V63h-1148V3.3H1268.5 M1271.5,0.3h-1154V66h1154C1271.5,66,1271.5,0.3,1271.5,0.3z"/>
		<rect x="120.4" y="21.8" class="st0" width="1149.9" height="22.4"/>
		<path class="st1" d="M123.9,32.7c0,9.5-1.1,19.1-3.4,28.3v5L0,33L120.4,0v5.1C122.7,14.1,123.8,23.4,123.9,32.7z"/>
		<path class="st2" d="M66.5,47.1c2.4-9.2,2.4-18.9,0-28.2L117.3,5c4.7,18.4,4.7,37.6,0,56L66.5,47.1z"/>
	</g>
</g>
</svg>
