<svg width="182" height="166" viewBox="0 0 182 166" fill="none" xmlns="http://www.w3.org/2000/svg">
<rect x="9" width="173" height="166" fill="#0497AF"/>
<circle cx="17" cy="11" r="4" fill="#FDF9EE"/>
<circle cx="17" cy="23" r="4" fill="#FDF9EE"/>
<circle cx="17" cy="35" r="4" fill="#FDF9EE"/>
<circle cx="17" cy="47" r="4" fill="#FDF9EE"/>
<circle cx="17" cy="59" r="4" fill="#FDF9EE"/>
<circle cx="17" cy="71" r="4" fill="#FDF9EE"/>
<circle cx="17" cy="83" r="4" fill="#FDF9EE"/>
<circle cx="17" cy="95" r="4" fill="#FDF9EE"/>
<circle cx="17" cy="107" r="4" fill="#FDF9EE"/>
<circle cx="17" cy="119" r="4" fill="#FDF9EE"/>
<circle cx="17" cy="131" r="4" fill="#FDF9EE"/>
<circle cx="17" cy="143" r="4" fill="#FDF9EE"/>
<circle cx="17" cy="155" r="4" fill="#FDF9EE"/>
<rect y="9" width="18" height="4" rx="2" fill="#C4C4C4"/>
<rect y="21" width="18" height="4" rx="2" fill="#C4C4C4"/>
<rect y="33" width="18" height="4" rx="2" fill="#C4C4C4"/>
<rect y="45" width="18" height="4" rx="2" fill="#C4C4C4"/>
<rect y="57" width="18" height="4" rx="2" fill="#C4C4C4"/>
<rect y="69" width="18" height="4" rx="2" fill="#C4C4C4"/>
<rect y="81" width="18" height="4" rx="2" fill="#C4C4C4"/>
<rect y="93" width="18" height="4" rx="2" fill="#C4C4C4"/>
<rect y="105" width="18" height="4" rx="2" fill="#C4C4C4"/>
<rect y="117" width="18" height="4" rx="2" fill="#C4C4C4"/>
<rect y="129" width="18" height="4" rx="2" fill="#C4C4C4"/>
<rect y="141" width="18" height="4" rx="2" fill="#C4C4C4"/>
<rect y="153" width="18" height="4" rx="2" fill="#C4C4C4"/>
</svg>
