<svg width="182" height="166" viewBox="0 0 182 166" fill="none" xmlns="http://www.w3.org/2000/svg">
<g id="sketchbook">
<rect id="Rectangle 175" x="9" width="173" height="166" fill="#0497AF"/>
<g id="Group 4">
<circle id="Ellipse 1" cx="17" cy="11" r="4" fill="#FDF9EE"/>
<circle id="Ellipse 2" cx="17" cy="23" r="4" fill="#FDF9EE"/>
<circle id="Ellipse 3" cx="17" cy="35" r="4" fill="#FDF9EE"/>
<circle id="Ellipse 4" cx="17" cy="47" r="4" fill="#FDF9EE"/>
<circle id="Ellipse 5" cx="17" cy="59" r="4" fill="#FDF9EE"/>
<circle id="Ellipse 6" cx="17" cy="71" r="4" fill="#FDF9EE"/>
<circle id="Ellipse 7" cx="17" cy="83" r="4" fill="#FDF9EE"/>
<circle id="Ellipse 8" cx="17" cy="95" r="4" fill="#FDF9EE"/>
<circle id="Ellipse 9" cx="17" cy="107" r="4" fill="#FDF9EE"/>
<circle id="Ellipse 10" cx="17" cy="119" r="4" fill="#FDF9EE"/>
<circle id="Ellipse 11" cx="17" cy="131" r="4" fill="#FDF9EE"/>
<circle id="Ellipse 12" cx="17" cy="143" r="4" fill="#FDF9EE"/>
<circle id="Ellipse 13" cx="17" cy="155" r="4" fill="#FDF9EE"/>
</g>
<g id="Group 5">
<rect id="Rectangle 176" y="9" width="18" height="4" rx="2" fill="#C4C4C4"/>
<rect id="Rectangle 177" y="21" width="18" height="4" rx="2" fill="#C4C4C4"/>
<rect id="Rectangle 178" y="33" width="18" height="4" rx="2" fill="#C4C4C4"/>
<rect id="Rectangle 179" y="45" width="18" height="4" rx="2" fill="#C4C4C4"/>
<rect id="Rectangle 180" y="57" width="18" height="4" rx="2" fill="#C4C4C4"/>
<rect id="Rectangle 181" y="69" width="18" height="4" rx="2" fill="#C4C4C4"/>
<rect id="Rectangle 182" y="81" width="18" height="4" rx="2" fill="#C4C4C4"/>
<rect id="Rectangle 183" y="93" width="18" height="4" rx="2" fill="#C4C4C4"/>
<rect id="Rectangle 184" y="105" width="18" height="4" rx="2" fill="#C4C4C4"/>
<rect id="Rectangle 185" y="117" width="18" height="4" rx="2" fill="#C4C4C4"/>
<rect id="Rectangle 186" y="129" width="18" height="4" rx="2" fill="#C4C4C4"/>
<rect id="Rectangle 187" y="141" width="18" height="4" rx="2" fill="#C4C4C4"/>
<rect id="Rectangle 188" y="153" width="18" height="4" rx="2" fill="#C4C4C4"/>
</g>
<g id="whaleplans">
<g id="Group">
<path id="Vector" d="M113.16 122.689C127.104 122.689 140.211 117.286 150.064 107.454C159.917 97.6402 165.36 84.5846 165.36 70.6964C165.36 56.8082 159.935 43.7526 150.082 33.9387C140.211 24.1071 127.104 18.7042 113.16 18.7042C99.2165 18.7042 86.1088 24.1071 76.2558 33.9387C66.4028 43.7526 60.9606 56.8082 60.9606 70.6964C60.9606 84.5846 66.4028 97.6402 76.2558 107.454C86.1088 117.286 99.2165 122.689 113.16 122.689ZM113.16 18.8813C141.848 18.8813 165.182 42.1228 165.182 70.6964C165.182 99.2699 141.848 122.511 113.16 122.511C84.4726 122.511 61.1384 99.2699 61.1384 70.6964C61.1384 42.1228 84.4726 18.8813 113.16 18.8813Z" fill="white"/>
<path id="Vector_2" d="M93.632 99.7305C111.453 99.7305 125.948 85.2932 125.948 67.5432C125.948 49.7932 111.453 35.3559 93.632 35.3559C75.8113 35.3559 61.3163 49.7932 61.3163 67.5432C61.3341 85.3109 75.829 99.7305 93.632 99.7305ZM93.632 35.5507C111.346 35.5507 125.77 49.8995 125.77 67.5609C125.77 85.2046 111.364 99.5711 93.632 99.5711C75.9002 99.5711 61.4942 85.2223 61.4942 67.5609C61.512 49.9172 75.918 35.5507 93.632 35.5507Z" fill="white"/>
<path id="Vector_3" d="M142.861 129.668C153.782 129.668 162.656 120.829 162.656 109.952C162.656 99.0751 153.782 90.2355 142.861 90.2355C131.941 90.2355 123.067 99.0751 123.067 109.952C123.067 120.829 131.941 129.668 142.861 129.668ZM142.861 90.4127C153.675 90.4127 162.479 99.1814 162.479 109.952C162.479 120.722 153.675 129.491 142.861 129.491C132.048 129.491 123.244 120.722 123.244 109.952C123.244 99.1814 132.048 90.4127 142.861 90.4127Z" fill="white"/>
<path id="Vector_4" d="M124.578 129.668C135.498 129.668 144.373 120.829 144.373 109.952C144.373 99.0751 135.498 90.2355 124.578 90.2355C113.658 90.2355 104.783 99.0751 104.783 109.952C104.783 120.829 113.658 129.668 124.578 129.668ZM124.578 90.4127C135.392 90.4127 144.195 99.1814 144.195 109.952C144.195 120.722 135.392 129.491 124.578 129.491C113.765 129.491 104.961 120.722 104.961 109.952C104.961 99.1814 113.747 90.4127 124.578 90.4127Z" fill="white"/>
<path id="Vector_5" d="M114.761 142.316C125.681 142.316 134.556 133.477 134.556 122.6C134.556 111.723 125.681 102.884 114.761 102.884C103.841 102.884 94.9659 111.723 94.9659 122.6C94.9659 133.477 103.841 142.316 114.761 142.316ZM114.761 103.061C125.574 103.061 134.378 111.83 134.378 122.6C134.378 133.37 125.574 142.139 114.761 142.139C103.947 142.139 95.1437 133.37 95.1437 122.6C95.1437 111.83 103.947 103.061 114.761 103.061Z" fill="white"/>
<path id="Vector_6" d="M139.607 149.296C150.527 149.296 159.402 140.456 159.402 129.58C159.402 118.703 150.527 109.863 139.607 109.863C128.687 109.863 119.812 118.703 119.812 129.58C119.812 140.456 128.687 149.296 139.607 149.296ZM139.607 110.04C150.42 110.04 159.224 118.809 159.224 129.58C159.224 140.35 150.42 149.119 139.607 149.119C128.793 149.119 119.99 140.35 119.99 129.58C119.99 118.809 128.793 110.04 139.607 110.04Z" fill="white"/>
<path id="Vector_7" d="M145.565 90.4126C156.485 90.4126 165.36 81.5731 165.36 70.6964C165.36 59.8196 156.485 50.9801 145.565 50.9801C134.645 50.9801 125.77 59.8196 125.77 70.6964C125.77 81.5731 134.645 90.4126 145.565 90.4126ZM145.565 51.1572C156.378 51.1572 165.182 59.9259 165.182 70.6964C165.182 81.4668 156.378 90.2355 145.565 90.2355C134.751 90.2355 125.948 81.4668 125.948 70.6964C125.948 59.9259 134.751 51.1572 145.565 51.1572Z" fill="white"/>
<path id="Vector_8" d="M142.861 75.4438C153.782 75.4438 162.656 66.6043 162.656 55.7276C162.656 44.8508 153.782 36.0113 142.861 36.0113C131.941 36.0113 123.067 44.8508 123.067 55.7276C123.067 66.6043 131.941 75.4438 142.861 75.4438ZM142.861 36.1884C153.675 36.1884 162.479 44.9571 162.479 55.7276C162.479 66.498 153.675 75.2667 142.861 75.2667C132.048 75.2667 123.244 66.498 123.244 55.7276C123.244 44.9571 132.048 36.1884 142.861 36.1884Z" fill="white"/>
<path id="Vector_9" d="M146.205 75.4438C157.125 75.4438 166 66.6043 166 55.7276C166 44.8508 157.125 36.0113 146.205 36.0113C135.285 36.0113 126.41 44.8508 126.41 55.7276C126.41 66.6043 135.285 75.4438 146.205 75.4438ZM146.205 36.1884C157.018 36.1884 165.822 44.9571 165.822 55.7276C165.822 66.498 157.018 75.2667 146.205 75.2667C135.392 75.2667 126.588 66.498 126.588 55.7276C126.588 44.9571 135.392 36.1884 146.205 36.1884Z" fill="white"/>
<path id="Vector_10" d="M61.0495 87.7201C65.4069 87.7201 69.782 86.3029 73.428 83.38C81.9293 76.5776 83.2988 64.142 76.4515 55.6568C73.1434 51.547 68.4126 48.9784 63.1659 48.4115C57.9015 47.8446 52.7438 49.3504 48.6176 52.6453C40.1163 59.4477 38.7468 71.8833 45.5942 80.3685C49.4891 85.2046 55.2515 87.7201 61.0495 87.7201ZM60.9784 48.4647C61.6898 48.4647 62.419 48.5001 63.1482 48.5887C68.3592 49.1555 73.0367 51.7064 76.3092 55.7808C83.0854 64.1775 81.7337 76.5068 73.3035 83.256C69.6931 86.1435 65.3535 87.5607 61.0317 87.5607C55.2871 87.5607 49.5958 85.0629 45.7187 80.2623C38.9425 71.8656 40.2942 59.5362 48.7243 52.787C52.2458 49.9704 56.5321 48.4647 60.9784 48.4647Z" fill="white"/>
<path id="Vector_11" d="M47.9063 98.2602C52.3881 98.2602 56.7277 96.7545 60.267 93.9024C64.3931 90.6075 66.972 85.8955 67.5411 80.6697C68.1103 75.4262 66.5985 70.289 63.2905 66.1792C56.461 57.7116 43.9757 56.3476 35.4566 63.1677C26.9553 69.9701 25.5859 82.4057 32.4332 90.891C35.7412 95.0007 40.4721 97.5693 45.7187 98.1362C46.4657 98.2248 47.1949 98.2602 47.9063 98.2602ZM47.8529 59.0048C53.5975 59.0048 59.2888 61.5026 63.166 66.3032C66.4562 70.3775 67.9502 75.4616 67.3811 80.652C66.8119 85.8423 64.2509 90.5012 60.1603 93.7607C56.0697 97.0379 50.9475 98.5259 45.7543 97.9591C40.5432 97.3922 35.8657 94.8413 32.5932 90.767C25.8171 82.3703 27.1687 70.041 35.5989 63.2917C39.1915 60.4043 43.5489 59.0048 47.8529 59.0048Z" fill="white"/>
<path id="Vector_12" d="M61.9921 70.2889C64.8556 70.2889 67.5945 69.3323 69.8532 67.5254C75.2777 63.1854 76.1314 55.267 71.774 49.8818C67.4166 44.4788 59.4666 43.6285 54.0599 47.9686C48.6354 52.3087 47.7818 60.227 52.1391 65.6123C54.2556 68.234 57.2435 69.8638 60.6049 70.2358C61.0673 70.2712 61.5297 70.2889 61.9921 70.2889ZM61.9566 45.3646C65.6025 45.3646 69.1951 46.9412 71.6495 49.9881C75.9357 55.3024 75.082 63.1145 69.7465 67.3837C67.1676 69.4563 63.9129 70.3952 60.6227 70.0409C57.3324 69.6866 54.3623 68.0746 52.2814 65.4883C47.9952 60.1739 48.8489 52.3618 54.1844 48.0926C56.4787 46.268 59.2176 45.3646 61.9566 45.3646Z" fill="white"/>
<path id="Vector_13" d="M37.6264 89.7926C40.4898 89.7926 43.2288 88.836 45.4875 87.0292C50.912 82.6891 51.7657 74.7707 47.4083 69.3855C43.0509 63.9826 35.1009 63.1323 29.6942 67.4723C27.062 69.5803 25.4258 72.5564 25.0523 75.9044C24.6966 79.2348 25.657 82.512 27.7556 85.116C29.8543 87.72 32.86 89.3675 36.2214 89.7395C36.7016 89.7749 37.164 89.7926 37.6264 89.7926ZM37.5909 64.8683C41.2368 64.8683 44.8294 66.4449 47.2838 69.4918C51.57 74.8061 50.7163 82.6182 45.3808 86.8874C42.8019 88.96 39.5472 89.8989 36.257 89.5446C32.9667 89.1903 29.9966 87.5783 27.9157 84.992C25.8348 82.4234 24.8922 79.1816 25.2479 75.9044C25.6036 72.6272 27.2221 69.6689 29.8187 67.5963C32.113 65.7717 34.8519 64.8683 37.5909 64.8683Z" fill="white"/>
<path id="Vector_14" d="M57.0123 105.523C59.7868 105.523 62.579 104.62 64.8911 102.76C67.5233 100.652 69.1596 97.6756 69.533 94.3275C69.8887 90.9972 68.9284 87.72 66.8297 85.116C64.731 82.5119 61.7253 80.8645 58.3639 80.4925C55.0203 80.1382 51.7301 81.0948 49.1156 83.1851C43.6912 87.5252 42.8375 95.4436 47.1948 100.829C49.667 103.911 53.3307 105.523 57.0123 105.523ZM56.9767 80.5988C57.4391 80.5988 57.8837 80.6165 58.3462 80.6696C61.6364 81.0239 64.6065 82.6359 66.6874 85.2223C68.7683 87.7909 69.7109 91.0326 69.3552 94.3098C68.9995 97.587 67.381 100.545 64.7844 102.618C62.4901 104.443 59.7512 105.346 57.0123 105.346C53.3663 105.346 49.7737 103.769 47.3193 100.723C43.0331 95.4081 43.8868 87.596 49.2224 83.3268C51.4455 81.5376 54.1666 80.5988 56.9767 80.5988Z" fill="white"/>
<path id="Vector_15" d="M73.2146 92.5561C75.9891 92.5561 78.7814 91.6527 81.0935 89.7926C83.7257 87.6846 85.3619 84.7086 85.7354 81.3605C86.0911 78.0302 85.1307 74.753 83.0321 72.149C80.9334 69.5449 77.9277 67.8975 74.5663 67.5255C71.2227 67.1712 67.9324 68.1278 65.318 70.2181C59.8935 74.5581 59.0398 82.4765 63.3972 87.8618C65.8693 90.9441 69.5331 92.5561 73.2146 92.5561ZM73.179 67.6318C73.6415 67.6318 74.0861 67.6495 74.5485 67.7026C77.8388 68.0569 80.8089 69.6689 82.8898 72.2553C84.9706 74.8239 85.9133 78.0656 85.5576 81.3428C85.2018 84.62 83.5834 87.5783 80.9868 89.6509C78.6925 91.4755 75.9535 92.379 73.2146 92.379C69.5686 92.379 65.976 90.8024 63.5217 87.7555C59.2354 82.4411 60.0891 74.629 65.4247 70.3598C67.6478 68.5706 70.369 67.6318 73.179 67.6318Z" fill="white"/>
</g>
<path id="Vector_16" d="M30.2455 87.3303C30.868 88.5526 31.615 89.7218 32.5043 90.8201C35.8834 95.0007 40.6143 97.4453 45.5586 98.0122C50.6274 98.5967 55.9096 97.2504 60.1958 93.8138C61.9032 92.4498 63.3082 90.8732 64.4287 89.1372C69.7998 103.167 81.0934 114.292 95.286 119.447C99.7323 121.059 104.463 122.086 109.372 122.441C110.617 122.529 111.88 122.582 113.16 122.582C115.988 122.582 118.745 122.352 121.448 121.927C123.155 121.661 124.845 121.307 126.499 120.864C129.078 120.191 131.586 119.323 133.987 118.26C134.307 119.642 134.467 121.094 134.467 122.565C134.467 124.159 134.271 125.718 133.915 127.206C139.393 124.265 143.306 118.827 144.124 112.414C144.764 111.954 145.387 111.475 145.992 110.979C151.505 112.857 155.916 117.108 157.997 122.494C160.86 119.092 162.567 114.699 162.567 109.934C162.567 105.116 160.824 100.687 157.925 97.2682C162.585 89.5092 165.271 80.4216 165.271 70.6963C165.271 68.3403 164.862 66.0729 164.079 63.9825C160.949 70.6963 154.119 75.3553 146.187 75.3553C145.618 75.3553 145.067 75.3376 144.515 75.2844C153.177 74.5581 160.238 68.2695 162.087 60.0145C158.566 54.6293 152.483 51.0686 145.565 51.0686C137.633 51.0686 130.803 55.7276 127.673 62.4414C127.086 63.6991 126.624 65.0277 126.321 66.4094C126.143 66.126 125.948 65.8426 125.788 65.5414C125.823 66.2146 125.841 66.87 125.841 67.5609C125.841 85.2754 111.417 99.6596 93.6142 99.6596C83.1209 99.6596 73.8015 94.6641 67.9146 86.9406C67.8257 86.7989 67.7545 86.6394 67.6656 86.4977C69.6753 85.7891 71.5783 84.7263 73.3391 83.3268C77.6253 79.8902 80.0975 75.0364 80.5954 69.9878C81.0934 65.0454 79.724 59.9082 76.3448 55.7276C75.4555 54.6115 74.4595 53.6372 73.3924 52.7869C75.5978 57.8179 74.2461 63.8762 69.7643 67.4723C69.1418 67.9683 68.4659 68.4112 67.7901 68.7655C67.63 68.854 67.47 68.9249 67.3277 68.9957C66.7408 69.2969 66.1716 69.6689 65.6381 70.0763C65.5492 70.1472 65.4424 70.2181 65.3535 70.3066C63.9663 71.4226 62.8814 72.7689 62.0988 74.2393C61.7787 74.8415 61.5119 75.4616 61.3163 76.0993C60.7827 77.7113 60.5871 79.4119 60.7294 81.0948C56.8878 79.8902 52.5304 80.5633 49.1512 83.2737C49.0623 83.3445 48.9734 83.4331 48.8666 83.504C48.3509 83.9468 47.8707 84.4251 47.4438 84.9211C47.3193 85.0628 47.2126 85.2046 47.1059 85.3286C46.6079 85.9131 46.0388 86.4623 45.4163 86.976C40.9344 90.5543 34.7096 90.5543 30.2455 87.3303Z" fill="white"/>
</g>
</g>
</svg>
