<svg width="61" height="61" viewBox="0 0 61 61" fill="none" xmlns="http://www.w3.org/2000/svg">
<path d="M0 40.0857C22.1426 40.0857 40.0857 22.1426 40.0857 0H0V40.0857Z" fill="#FEC600"/>
<path d="M15.5334 45.2632L16.4859 47.8445L19.1844 55.2713L20.1368 57.8526L20.7717 57.6262L16.1684 45.0141L15.5334 45.2632Z" fill="#FEC600"/>
<path d="M45.2625 15.1708L47.8703 16.0312L55.4216 18.454L58.0294 19.3144L58.2334 18.6578L45.4665 14.5141L45.2625 15.1708Z" fill="#FEC600"/>
<path d="M53.7889 4.37009L50.342 4.05309L47.5981 3.82666L47.5528 4.50595L53.7208 5.04938L58.1881 5.43431L60.932 5.66074L61 4.98145L53.7889 4.37009Z" fill="#FEC600"/>
<path d="M6.84832 58.1923L6.23605 53.075L5.55576 47.618L4.87546 47.686L5.21561 50.4258L5.55576 53.1429L6.50817 61L7.18847 60.9094L6.84832 58.1923Z" fill="#FEC600"/>
<path d="M11.5843 49.3023L10.9228 49.4609L12.7699 57.1451L13.4314 56.9866L11.5843 49.3023Z" fill="#FEC600"/>
<path d="M22.4111 45.305L21.8023 45.6081L25.3336 52.68L25.9424 52.3769L22.4111 45.305Z" fill="#FEC600"/>
<path d="M31.7472 49.0672L29.5929 45.7387L25.942 40.1232L25.3751 40.4855L26.8717 42.7951L29.026 46.1236L32.6769 51.739L33.2439 51.3768L31.7472 49.0672Z" fill="#FEC600"/>
<path d="M32.0987 38.9938L31.5738 39.4259L36.608 45.5234L37.1329 45.0913L32.0987 38.9938Z" fill="#FEC600"/>
<path d="M42.0197 40.5535L39.1851 37.8137L34.355 33.1492L33.8788 33.6474L35.8517 35.5494L38.7089 38.2892L43.539 42.9536L44.0152 42.4555L42.0197 40.5535Z" fill="#FEC600"/>
<path d="M40.0857 30.6762L39.6716 31.2151L45.9506 36.0261L46.3648 35.4871L40.0857 30.6762Z" fill="#FEC600"/>
<path d="M43.3349 25.8809L40.9766 24.477L40.6137 25.0431L49.4349 30.3415L49.7751 30.5453L52.1334 31.9491L52.4736 31.3831L49.7977 29.7528L43.3349 25.8809Z" fill="#FEC600"/>
<path d="M46.003 20.7505L45.7209 21.3687L52.9227 24.6458L53.2049 24.0276L46.003 20.7505Z" fill="#FEC600"/>
<path d="M49.5418 9.78328L49.4062 10.4489L57.1613 12.0231L57.2968 11.3574L49.5418 9.78328Z" fill="#FEC600"/>
</svg>
